inDegrees=yes
name=ik_S47_A06_T01
DataType=double
version=3
OpenSimVersion=4.3-2021-08-27-4bc7ad9
endheader
time	pelvis_tilt	pelvis_list	pelvis_rotation	pelvis_tx	pelvis_ty	pelvis_tz	hip_flexion_r	hip_adduction_r	hip_rotation_r	knee_angle_r	knee_angle_r_beta	ankle_angle_r	subtalar_angle_r	mtp_angle_r	hip_flexion_l	hip_adduction_l	hip_rotation_l	knee_angle_l	knee_angle_l_beta	ankle_angle_l	subtalar_angle_l	mtp_angle_l	lumbar_extension	lumbar_bending	lumbar_rotation	arm_flex_r	arm_add_r	arm_rot_r	elbow_flex_r	pro_sup_r	wrist_flex_r	wrist_dev_r	arm_flex_l	arm_add_l	arm_rot_l	elbow_flex_l	pro_sup_l	wrist_flex_l	wrist_dev_l
8.219999999999914	-15.80694950982105	-4.645093086307073	29.46012396562586	0	0.9399999999999999	0	36.47280406433203	-10.65143559059374	-9.834698287890085	46.25122930051847	0.8072362343889211	0	0	0	36.47280406433203	-10.65143559059374	-9.834698287890085	46.25122930051847	0.8072362343889211	0	0	0	-15.97961502020745	2.823720787828363	-3.921635537134299	51.16707511751127	-1.811125947984534	19.71522250528704	36.55868936705785	112.1144448076922	0	0	92.82053161134741	-5.511283239827751	10.01296471524409	19.77449275902899	59.67318842668435	0	0
8.239999999999913	-15.84117235412744	-4.626449468130645	29.42869281760834	0	0.9399999999999999	0	36.47517636765303	-10.65081413608775	-9.834799626259722	46.25287605056259	0.8072649755991484	0	0	0	36.47517636765303	-10.65081413608775	-9.834799626259722	46.25287605056259	0.8072649755991484	0	0	0	-16.00228814832557	2.862785016190823	-3.932366751949047	51.20992387067231	-1.798372689219637	19.72394836693107	36.65139866625035	112.0660326603085	0	0	92.823333525983	-5.601815374349489	10.00178117065107	19.76711089542014	60.0550060388472	0	0
8.259999999999913	-15.90615525464108	-4.551737605490002	29.4390761527127	0	0.9399999999999999	0	36.47671537820332	-10.65041555272151	-9.834864881422646	46.25395580852339	0.8072838209306891	0	0	0	36.47671537820332	-10.65041555272151	-9.834864881422646	46.25395580852339	0.8072838209306891	0	0	0	-16.02475126412367	2.964334807794804	-3.929569153127954	51.27665331431081	-1.920558994088658	19.7622948571938	36.64821777888282	112.114842549782	0	0	92.87232933490992	-5.697653453448465	9.772295524695624	19.87404376928544	60.07877444552545	0	0
8.279999999999912	-15.93942745063945	-4.517666821303554	29.46673967000764	0	0.9399999999999999	0	36.47949049791172	-10.64969188054457	-9.834983083712862	46.25588978509793	0.8073175751895711	0	0	0	36.47949049791172	-10.64969188054457	-9.834983083712862	46.25588978509793	0.8073175751895711	0	0	0	-16.04095715481355	3.023654806369445	-3.961354580182343	51.30871200223435	-1.87466048626064	19.73285485648739	36.70619348504538	112.079247352625	0	0	92.9319262954188	-5.86137634727525	9.590276722485525	20.20965911794268	59.78840761125844	0	0
8.299999999999912	-15.94687604594189	-4.490525259162939	29.50139219138971	0	0.9399999999999999	0	36.48204199978293	-10.64902661647798	-9.835091768890475	46.25766671316735	0.8073485884349536	0	0	0	36.48204199978293	-10.64902661647798	-9.835091768890475	46.25766671316735	0.8073485884349536	0	0	0	-16.03740341397985	3.063423674522355	-3.994241383883718	51.31033462195022	-1.859976854252485	19.72152456300024	36.7368787815488	112.0730999959846	0	0	92.92419354523489	-6.032403581081078	9.415147919158869	20.69591272378268	59.57414594993385	0	0
8.319999999999911	-15.98097909882617	-4.457633113922917	29.5744651271128	0	0.9399999999999999	0	36.48519326146445	-10.64820063451398	-9.83522648223656	46.25984900050936	0.8073866765342962	0	0	0	36.48519326146445	-10.64820063451398	-9.83522648223656	46.25984900050936	0.8073866765342962	0	0	0	-16.05548017156261	3.127825257156338	-4.045085414483762	51.33364023277321	-1.872965458720748	19.72001797044184	36.79598658224334	112.077245303449	0	0	93.07226665108541	-6.291309517417898	8.866585666367495	21.15855940296512	59.95145991455833	0	0
8.339999999999911	-16.01736051238041	-4.408565023011803	29.62199176058756	0	0.9399999999999999	0	36.48854181841492	-10.64732490618924	-9.835369440411091	46.26217122175032	0.8074272069409109	0	0	0	36.48854181841492	-10.64732490618924	-9.835369440411091	46.26217122175032	0.8074272069409109	0	0	0	-16.06399999857143	3.18613134389014	-4.028245437345268	51.34334668410676	-1.945450640180866	19.71017756387561	36.85228670199983	112.0515099170552	0	0	93.30151704923249	-6.297823903723015	8.684314545456886	21.5953783127	60.28773502474693	0	0
8.359999999999911	-16.0482630717956	-4.361270327403788	29.6670022536946	0	0.9399999999999999	0	36.49020506133768	-10.64689218516446	-9.835440216758322	46.26332960715098	0.8074474245801594	0	0	0	36.49020506133768	-10.64689218516446	-9.835440216758322	46.26332960715098	0.8074474245801594	0	0	0	-16.06727766105179	3.236110872024408	-3.999184687594907	51.35786778576911	-2.019484708899131	19.7021786959431	36.90030968163325	112.0384206293758	0	0	93.51511862482091	-6.244402130863137	8.672298834190968	21.46304392729926	60.20954458538971	0	0
8.37999999999991	-16.0762928062191	-4.336741870719503	29.66067635006331	0	0.9399999999999999	0	36.49325954910076	-10.64609657539479	-9.835570306541303	46.26545363401345	0.8074844958423103	0	0	0	36.49325954910076	-10.64609657539479	-9.835570306541303	46.26545363401345	0.8074844958423103	0	0	0	-16.07534526266317	3.241374697616026	-3.905101325713456	51.36293300685497	-2.063411589920701	19.67132838832163	36.91654710007351	112.0234687260332	0	0	93.82303686886591	-6.029692162130934	8.79232561885842	22.74813720237665	60.32791887899818	0	0
